<?xml version="1.0" encoding="UTF-8"?>
<svg xmlns="http://www.w3.org/2000/svg" version="1.1" viewBox="0 0 1126 798">
  <!-- Generator: Adobe Illustrator 28.7.1, SVG Export Plug-In . SVG Version: 1.2.0 Build 142)  -->
  <g>
    <g id="Layer_1">
      <g>
        <path d="M583.35,590.79c-.47-1.69-.35-3.72-2.24-4.77-.2,1.57-.65,3.01-2.04,3.96-.22,1.57-.74,2.98-2.06,3.98-.75,1.64-1.49,3.29-2.24,4.93h0c-.35,1.17-.61,2.38-1.75,3.1-.3,1.51-.83,2.91-2.03,3.96h0s0,0,0,0c-.22,1.55-.81,2.93-2,4-.74,1.64-1.48,3.28-2.22,4.93-.42,1.54-.78,3.13-2.82,3.27.05.2.08.41.1.61.2,2.53-.67,3.34-2.51,1.23-.9-1.04-1.16-2.64-1.7-3.98-1.49-1.75-2.55-3.73-3.01-6-1.52-1.74-2.48-3.77-3.06-5.99-1.14-1.87-3.33-3.42-1.84-6.05-3.15-.91-3.81-3.07-2.98-5.99-3.28-.64-3.15-3.67-4.07-5.95-1.7.94-1.65,2.73-2.09,4.29-11.81,42.2-23.59,84.41-35.48,126.59-.77,2.73-.17,4.18,2.19,5.67,16.85,10.66,33.65,21.4,50.38,32.25,2.33,1.51,3.95,1.4,6.2-.05,16.6-10.74,33.24-21.43,49.97-31.95,2.73-1.72,3.34-3.21,2.44-6.38-11.81-41.86-23.43-83.77-35.14-125.65Z"/>
        <path d="M775.62,280.06c.03-8.29.01-16.57.01-25.44-7.45,3.2-14.68,6.41-22.01,9.38-2.61,1.06-4.34,2.62-5.73,5.08-31.54,55.78-63.15,111.51-94.72,167.28-.69,1.21-1.91,2.31-1.49,4.38.67-.38,1.02-.46,1.19-.68,40.22-51.53,80.42-103.07,120.67-154.57,1.3-1.66,2.08-3.37,2.08-5.42Z"/>
        <path d="M426.59,483.78c-51.16-39.96-102.32-79.92-153.49-119.87-1.04-.81-2.02-1.73-3.49-1.72-8.77.02-17.54,0-26.89,0,3.18,7.35,6.38,14.25,9.14,21.31,1.23,3.16,3.09,5.16,6.02,6.8,28.96,16.29,57.83,32.74,86.75,49.09,27.03,15.28,54.11,30.5,81.16,45.75.39-.34.77-.68,1.16-1.02-.12-.12-.23-.25-.36-.35Z"/>
        <path d="M375.9,269.08c-.64-1.13-1.13-2.38-2.52-2.97-8.07-3.4-16.11-6.85-24.51-10.43,0,8.3.11,16.08-.06,23.85-.07,3,.74,5.32,2.61,7.7,35.07,44.8,70.05,89.67,105.05,134.53,5.36,6.87,10.75,13.72,16.13,20.58.28-.25.55-.5.83-.75-.17-.45-.3-.92-.53-1.34-32.32-57.07-64.66-114.13-97-171.18Z"/>
        <path d="M871.62,385.35c3.52-8.2,7.02-16.4,10.51-24.58-7.32,0-14.29.35-21.19-.11-5.64-.38-9.61,2-13.81,5.3-31.5,24.78-63.16,49.36-94.74,74.04-18.59,14.53-37.12,29.15-55.68,43.73.08.34.17.68.25,1.02.45-.17.94-.29,1.36-.53,56.76-32.12,113.52-64.25,170.28-96.38,1.15-.65,2.44-1.18,3.01-2.5Z"/>
        <path d="M637.49,198.21c-6.56,6.26-12.79,12.22-19.03,18.18-1.03.98-1.28,2.23-1.44,3.6-.95,8.09-1.98,16.16-2.98,24.25-4.87,39.6-9.77,79.2-14.61,118.8-2.24,18.31-4.37,36.63-6.56,54.95.33-.02.66-.04.98-.05,17.64-63.65,35.28-127.29,52.88-190.95.39-1.4.99-2.84.37-4.38-3.27-8.24-6.52-16.5-9.64-24.4Z"/>
        <path d="M921.66,630.5c-.97-1.03-2.12-1.41-3.52-1.58-10.9-1.28-21.78-2.63-32.67-3.97-31.19-3.86-62.37-7.76-93.56-11.59-23.6-2.9-47.21-5.71-70.82-8.55,0,0,0,0,0,0h0c-.34.33-.67.67-1.01,1,63.36,17.5,126.71,35.01,190.07,52.49,1.43.39,3.14,1.19,4.33.75,8.58-3.15,17.07-6.56,24.95-9.65-6.16-6.54-11.97-12.72-17.77-18.91Z"/>
        <path d="M398.41,607.26c-31.68,3.9-63.36,7.81-95.04,11.75-31.35,3.89-62.69,7.82-94.04,11.72-1.63.2-3.23.16-4.53,1.6-5.78,6.43-11.65,12.78-17.41,19.07,6.17,2.48,13.57,5.35,20.88,8.42,2.76,1.16,5.25,1.21,8.15.33,8.58-2.59,17.26-4.81,25.89-7.2,54.22-15.02,108.43-30.04,162.65-45.07-.37-.35-.73-.71-1.1-1.06-1.82.14-3.66.22-5.47.44Z"/>
        <path d="M531.13,416.87c-2.67-21.95-5.32-43.91-8.01-65.86-5.33-43.41-10.7-86.82-16.02-130.23-.19-1.52-.3-2.92-1.55-4.04-6.41-5.8-12.78-11.65-19.13-17.45-2.53,6.35-5.43,13.9-8.56,21.36-1.04,2.47-.99,4.65-.28,7.2,17.58,63.35,35.09,126.71,52.61,190.08.32-.35.64-.69.95-1.04Z"/>
        <path d="M401.51,542.74c-62.21-17.24-124.41-34.49-186.63-51.68-1.22-.34-2.44-1.11-3.85-.54-8.35,3.35-16.72,6.68-24.31,9.71,5.95,6.37,11.74,12.55,17.5,18.76,1.09,1.17,2.42,1.65,3.96,1.83,8.58,1.03,17.16,2.08,25.74,3.13,33.99,4.18,67.98,8.4,101.97,12.54,21.28,2.6,42.58,5.09,63.87,7.63,1.06-.32,2.13-.65,3.19-.97h0c-.48-.14-.96-.29-1.44-.42Z"/>
        <path d="M727.21,542.09h0c7.44-.8,14.89-1.5,22.31-2.41,53.65-6.59,107.3-13.21,160.94-19.85,3.26-.4,7.52.03,9.54-1.84,6.62-6.13,12.42-13.15,18.49-19.79-6.43-2.53-13.86-5.29-21.15-8.4-2.67-1.14-4.99-1.04-7.66-.3-34.71,9.65-69.45,19.18-104.17,28.81-27.19,7.54-54.36,15.19-81.53,22.79.84,1.09,2.17.58,3.22,1Z"/>
        <path d="M195.56,631.89c-9.56-2.11-18.75-4.41-28.04-6.13-16.3-3.01-33.54,6.25-40.15,21.33-2.32,5.28-3.08,10.81-1.64,16.56,3.55,14.21,20.72,24.95,36.67,22.85,10.76-1.42,29.06-11.89,39.33-22.59-8.81-3.66-17.56-7.29-26.85-11.14,7.16-7.23,13.71-13.84,20.68-20.88ZM156.06,670.12c-7.37-.53-13.74-6.54-13.82-13.19-.08-7.08,6-13.49,13.48-14.11,3.13-.26,6.26-.37,10.27-.6-2.83,4.26-5.19,8.04-7.79,11.65-1.47,2.03-1.5,3.22.84,4.61,3.8,2.27,7.39,4.9,11.67,7.78-5.2,2.09-9.54,4.23-14.65,3.86Z"/>
        <path d="M495.04,197.24c3.36,3.39,6.67,6.83,10.71,10.97,2.29-10.44,4.76-19.7,6.3-29.12,2.56-15.67-4.8-30.44-18.45-38.37-11.56-6.71-24.53-4.58-33.33,5.48-10.12,11.57-12.22,29.68-4.25,42.78,5.25,8.62,11.45,16.66,17.54,25.41,3.88-9.37,7.53-18.17,11.29-27.28,3.64,3.63,6.93,6.86,10.17,10.13ZM479.67,170.5c-2.46,3.89-5.16,7.64-8.11,11.95-2.43-5.77-4.97-10.86-3.55-16.89,1.56-6.63,7.16-11.46,13.28-11.33,6.44.14,12.49,5.19,13.52,11.76.56,3.55.44,7.2.69,11.82-4.69-3.11-8.47-5.45-12.04-8.07-1.81-1.33-2.65-1.06-3.79.75Z"/>
        <path d="M761.32,222.95c-3.95,10.57-4.25,22.05-6.59,33.73,9.43-3.89,18.18-7.49,27.34-11.27v29.44c7.92-4.96,15.12-9.39,22.23-13.95,13.93-8.94,19.31-22.02,17.4-38.04-1.82-15.35-13.67-25.25-28.61-23.64-15.01,1.61-26.4,9.33-31.78,23.73ZM780.35,223.04c4.73-7.25,14.72-9.36,20.88-4.66,6.48,4.95,6.93,14.26.98,21.15-1.83,2.12-3.74,4.16-6.19,6.89-.82-4.18-1.76-7.64-2.13-11.15-.47-4.52-2.05-6.37-6.88-4.7-3.36,1.16-7.04,1.41-11.51,2.25,1.9-3.9,3.06-7.04,4.85-9.77Z"/>
        <path d="M949.41,467.6c-8.82,5.24-17,11.58-26,17.8,9.4,3.89,18.11,7.5,27.73,11.48-7.4,7.04-14.13,13.44-21.61,20.57,9.77,2.27,18.32,4.41,26.94,6.23,16.01,3.38,32.26-3.93,40.53-18.05,6.89-11.76,4.71-24.89-5.6-33.75-11.46-9.84-29.04-11.99-41.99-4.29ZM982.72,497.66c-4.18,9.79-12.84,9.7-22.45,9.39,2.64-4.01,4.74-7.54,7.21-10.8,1.8-2.38,1.89-3.75-.95-5.36-3.72-2.12-7.16-4.73-10.85-7.22,9.82-5.43,17.43-5.5,23.33-.41,4.36,3.77,5.93,9.21,3.72,14.4Z"/>
        <path d="M177.82,497.14c7.93-3.06,15.77-6.35,24.39-9.85-9.46-6.37-17.54-13.36-26.88-18.4-13.34-7.19-31.78-4.37-42.65,6.17-4.14,4.02-6.95,8.84-7.69,14.73-2.2,17.46,14.46,35.67,33.18,36.37,12.7.47,24.36-4.53,36.95-6.46-6.3-6.58-12.07-12.75-18.02-18.74-1.94-1.95-2.03-2.76.71-3.82ZM158.27,498.27c2.43,3.27,4.57,6.77,6.94,10.33-10.84,1.55-17.72-1.15-21.39-8.14-2.89-5.49-2.27-10.81,2.03-15.06,7.86-7.79,15.87-3.47,24.37-.07-4.03,2.72-7.32,5.3-10.94,7.26-3.12,1.7-2.81,3.23-1,5.67Z"/>
        <path d="M903.7,237.98c-1.84,7.87-3.33,15.83-5.14,24.58,10.03-3.96,19.44-7.15,28.4-11.33,13.09-6.1,19.53-17.26,20.7-31.28,1.32-15.82-7.77-27.39-22.55-29.66-15.82-2.44-33.17,7.25-39.29,22.15-3.47,8.44-6.61,17-10.41,26.83,8.69-1.78,16.63-3.28,24.51-5.07,3.68-.83,4.67-.02,3.78,3.79ZM915.44,206.85c6.29-1.19,11.69,1.04,14.6,6.05,2.99,5.15,2.46,11.65-1.9,16.15-2.82,2.91-6.28,5.18-10.22,8.35,0-5.08-.18-9.18.06-13.25.18-3.07-.46-4.48-3.96-4.19-4.13.34-8.31.08-13.13.08,3.62-6.22,7.11-11.79,14.54-13.19Z"/>
        <path d="M210.68,316.19c-15.05,1.78-24.69,13.96-23.44,28.88,1.21,14.35,11.62,27.72,25.54,32,10.31,3.17,21.14,3.87,32.08,6-3.83-9.21-7.44-17.89-11.25-27.04h29.55c-5.01-7.97-9.42-14.94-13.78-21.94-8.99-14.45-22.28-19.85-38.71-17.9ZM220.89,344.54c-2.72.38-3.21,1.54-2.67,3.93.97,4.34,1.78,8.71,2.76,13.57-5.58-2.24-10.74-3.95-14.07-8.74-4.06-5.83-3.82-13.37.65-17.9,4.74-4.79,12.48-5.45,18.24-1.26,2.91,2.12,5.48,4.72,8.81,7.64-5.1,1.06-9.38,2.15-13.73,2.77Z"/>
        <path d="M105.43,415.17c9.08-.03,18.17,0,28.32,0-6.13-9.18-11.34-16.97-16.81-25.15,9.71-1.91,18.81-3.69,28.93-5.68-6.27-6.67-11.95-12.71-17.62-18.75-9.95-10.59-22.12-14.22-36.29-11.49-20.36,3.92-29.59,22.81-19.67,40.96,7.07,12.94,17.98,20.18,33.14,20.12ZM90.76,371.77c9.05-6.4,16.18-.81,24.23,4.37-4.65,1.98-8.72,3.86-12.9,5.42-2.22.83-2.74,1.77-1.74,3.98,1.83,4.02,3.41,8.15,5.15,12.39-9.93-.11-17-4.44-19.3-11.57-1.82-5.62-.18-11.24,4.56-14.59Z"/>
        <path d="M992.24,415.2c10.01,0,18.64-.15,27.26.03,16.84.34,31.53-9.96,36.75-25.99,3.94-12.08.02-24.15-10.64-30.38-13.26-7.76-27.01-8.14-40.08.29-9.95,6.42-16.48,16.5-25.56,25.16,10.28,2.04,19.5,3.88,29.1,5.79-5.48,8.18-10.73,16.01-16.83,25.11ZM1034.19,371.45c4.94,2.91,7.47,8.21,6.43,13.45-1.54,7.7-7.37,11.69-19.78,13.26.73-4.52,3.07-8.3,4.66-12.3.95-2.38.74-3.48-1.78-4.39-4.04-1.45-7.96-3.24-12.36-5.06,8.59-7.52,15.92-9.02,22.82-4.96Z"/>
        <path d="M227.5,262.61c-1.89-9.12-3.45-17.08-5.23-25-.78-3.46.13-4.29,3.58-3.51,7.9,1.8,15.87,3.33,24.72,5.16-3.42-9.02-6.38-17.29-9.68-25.41-5.82-14.28-16.85-21.92-31.9-23.62-14.67-1.66-26.94,6.28-29.78,19.19-2.83,12.89.38,24.49,9.34,34.14,10.31,11.1,25.36,12.46,38.96,19.04ZM201.3,207.71c5.26-2.87,11.73-2.18,16.09,2.19,2.79,2.8,5.06,6.13,8.31,10.14-5.55,0-9.99.17-14.42-.06-2.69-.14-3.39.78-3.28,3.35.2,4.31.05,8.64.05,13.54-6.25-3.67-11.84-7.2-13.12-14.75-1.06-6.27,1.27-11.64,6.37-14.42Z"/>
        <path d="M560.81,95.21c2.02-3.29,2.83-2.49,4.5.12,4.45,6.97,9.11,13.81,14.09,21.3,4.11-9.19,7.99-17.45,11.51-25.85,6.39-15.24.89-34.5-12.5-44.17-5.58-4.03-11.78-6.09-18.73-4.96-14.8,2.41-26.7,17.37-27.2,33.76-.47,15.38,9.16,27.07,14.01,41.42,5.21-7.81,10-14.59,14.32-21.64ZM550.82,67.47c2.99-5.96,8.5-9.3,14.38-8.41,5.77.87,10.65,5.91,11.55,12.13.64,4.48-.98,8.68-1.46,14.59-3.99-4.21-7.06-7.21-9.83-10.47-1.93-2.26-3.24-1.98-5.02.12-2.76,3.26-5.75,6.32-9.39,10.27-1.58-7.06-3.08-12.55-.23-18.23Z"/>
        <path d="M104.77,558.4c-9.22-4.09-17.61-8.07-26.21-11.56-14.94-6.07-32.58-1.32-42.8,11.24-4.97,6.11-7.03,13.02-5.81,20.91,2.34,15.04,20.49,27.91,37.41,26.36,13.53-1.24,24.39-9.29,37.51-14.06-8.72-5.82-16.53-11.04-24.7-16.49,8.35-5.56,16.23-10.82,24.59-16.39ZM58.07,588.02c-7.24-2.27-12.07-9.07-10.87-15.77,1.22-6.78,8.04-11.8,15.51-11.23,3.11.24,6.2.88,9.83,1.41-2.37,4.22-5.97,6.86-9.06,9.85-2.09,2.01-2.07,3.18.05,5.03,3.23,2.84,6.21,5.96,10.04,9.69-6.02.95-10.57,2.56-15.49,1.02Z"/>
        <path d="M880.07,381.48c8.66-1.48,16.95-2.86,25.23-4.3,17.41-3.03,28.92-14.41,32.05-31.61,2.4-13.22-4.51-25.09-17.2-29.52-15.94-5.56-34.06.55-43.42,14.71-3.29,4.98-6.47,10.05-9.55,15.16-1.55,2.58-3.78,4.85-4.53,8.25,8.7,0,17.01.08,25.32-.04,2.87-.04,3.43.55,2.18,3.34-3.43,7.69-6.55,15.52-10.09,24.01ZM890.61,340.28c4.47-4.96,8.64-9.11,14.97-10.01,6.27-.9,12.73,2.78,14.84,8.43,2.22,5.96-.03,12.95-5.71,16.52-3.18,2-6.73,3.44-10.81,5.48,1.02-5.08,1.81-9.44,2.8-13.75.55-2.41.15-3.62-2.63-4.01-4.35-.61-8.64-1.68-13.46-2.66Z"/>
        <path d="M723.13,145.32c8.58-5.75,16.39-10.99,24.67-16.54,1.9,9.65,3.72,18.84,5.71,28.93,6.7-6.27,12.76-11.93,18.8-17.61,10.43-9.82,14.23-21.91,11.45-35.82-2.26-11.28-8-20.14-19.88-23.27-17.5-4.61-38.68,11.05-40.85,30.35-1.24,11.03.29,22.08.11,33.96ZM753.85,97.47c4.96-.97,10.21,1.56,13.03,6.28,3.92,6.58,2.33,13.48-5.41,22.64-1.77-4.18-3.66-8.14-5.1-12.25-.91-2.61-2.12-2.78-4.37-1.78-4.01,1.79-8.12,3.36-12.45,5.13,1.63-12.57,5.86-18.36,14.3-20.02Z"/>
        <path d="M971.18,623.87c-14.14-2.13-26.79,4.2-41.9,6.38,7.79,7.75,14.45,14.37,21.26,21.15-8.66,3.55-17.36,7.13-26.71,10.97,8.47,5.97,16.14,11.84,24.26,17,12.71,8.07,30.21,6.93,42.19-2.24,5.76-4.4,9.79-9.94,10.7-17.32,2.02-16.29-12.15-33.27-29.81-35.93ZM980.96,663.31c-7.65,8.9-16.15,4.64-25.24,1.06,4.12-2.76,7.56-5.38,11.29-7.46,2.88-1.61,2.56-3.01.89-5.27-2.44-3.3-4.6-6.81-6.93-10.3,8.4-2.33,16.6.4,20.65,6.74,3.3,5.17,3.21,10.74-.66,15.23Z"/>
        <path d="M318.53,260.9c6.76,4.52,13.81,8.6,20.6,13.06,3.19,2.1,3.49.67,3.42-2.16-.18-6.97-.08-13.95-.42-20.92-.19-3.87.75-4.55,4.32-2.93,7.35,3.33,14.86,6.29,23.2,9.78-1.57-9.2-2.95-17.5-4.42-25.78-2.99-16.96-15.13-28.91-32.08-31.64-12.91-2.08-24.78,5.04-29.02,17.42-5.4,15.75.57,33.92,14.39,43.16ZM318.62,228.17c1.24-6.5,4.64-10.23,10.3-11.28,5.85-1.09,11.82,1.49,14.87,6.75,1.72,2.98,3.02,6.2,4.96,10.27-5.3-1.07-9.51-1.86-13.68-2.78-2.44-.54-3.63.08-4.01,2.75-.61,4.23-1.61,8.41-2.45,12.68-7.32-4.53-11.24-11.82-9.99-18.39Z"/>
        <path d="M1093.83,563.63c-6.15-12.42-22.8-21.15-36.62-19.21-12.89,1.81-23.48,9.36-36.16,13.9,8.62,5.78,16.49,11.04,24.75,16.57-8.39,5.57-16.1,10.69-24.58,16.32,8.48,3.8,16.16,7.28,23.87,10.69,12.86,5.7,25.22,4.56,36.96-3.02,13.15-8.49,17.9-22.92,11.79-35.25ZM1078.64,578.11c-1.75,7-8.99,11.52-16.54,10.35-2.77-.43-5.56-.82-9.44-1.39,3.79-3.79,6.9-7.07,10.19-10.14,1.74-1.62,1.84-2.71-.05-4.29-3.41-2.84-6.64-5.89-9.94-8.86.37-.47.73-.94,1.1-1.41,5.02-.87,9.97-2.35,15.13-.36,6.89,2.65,11.16,9.7,9.56,16.1Z"/>
        <path d="M663.39,145.27c-6.06-6.76-13.72-9.69-22.82-8.39-18.95,2.71-32.71,24.54-28.12,44.56,1.93,8.41,3.85,16.82,6.21,27.13,7.64-7.65,14.34-14.38,21-21.05,3.48,8.46,7.03,17.09,10.87,26.41,5.55-7.81,10.7-14.91,15.7-22.12,9.93-14.3,8.79-33.57-2.84-46.55ZM656.07,172.3c-.94,3.16-2.15,6.25-3.44,9.96-2.67-3.95-5.24-7.36-7.38-11.03-1.57-2.68-2.87-3.34-5.56-1.25-3.33,2.6-7.01,4.74-11.1,7.45.35-5.87-.41-11,2.41-15.71,3.82-6.4,11.21-9.37,17.34-6.76,6.56,2.79,9.87,10.1,7.73,17.34Z"/>
        <path d="M372.44,158.01c2.06-10.4,3.89-19.61,5.8-29.26,8.18,5.49,16,10.74,25.28,16.96,0-10.1-.02-18.74,0-27.37.03-16.09-7.51-27.63-21.54-34.9-13.55-7.02-28.58-3.04-35.57,9.65-6.58,11.96-7.15,24.55-.6,36.75,6.18,11.52,17.64,18.07,26.63,28.16ZM367.8,97.37c6.91-1.64,14.06,2.77,16.46,10.26.95,2.96,1.62,6,2.67,9.98-4.61-1.85-8.6-3.19-12.33-5.04-2.99-1.48-4.27-.74-5.29,2.25-1.33,3.88-3.07,7.62-4.95,12.17-3.04-4.6-5.95-8.19-6.64-12.97-1.12-7.78,3.24-15.03,10.08-16.65Z"/>
        <path d="M548.85,591.11c.27.34.48.72.64,1.12.02.13.06.26.08.39,1.01,1.34,1.69,2.85,2.2,4.44.06.06.11.13.18.19.27.35.47.74.61,1.16.02.13.07.24.09.37,1.13,1.55,2.04,3.21,2.38,5.16,1.5,1.75,2.59,3.71,2.96,6.01,1.5,1.74,2.73,3.63,3.17,5.94.9.25.9,1.39,1.27,2.17.19.04.4.06.66.02.3-.26.59-.51.87-.78,0,0,.02-.02.03-.03.17-1.38.86-2.54,1.87-3.56h0s0,0,0,0c.7-1.26,1.4-2.52,2.1-3.79h0c.24-1.54.89-2.89,2-4,.25-1.88,1.4-3.34,2.33-4.89.56-1.04,1.12-2.08,1.68-3.13h0s0,0,0,0c.68-1.32,1.36-2.64,2.04-3.96.21-1.56,1.04-2.81,2.01-4,.32-1.56.98-2.93,2.15-4.03,6.3-12.57,12.59-25.14,18.93-37.69.99-1.95,1.65-3.66.86-6.04-3.83-11.64-7.52-23.34-11.03-35.08-.84-2.8-2.21-3.46-4.93-3.37-6.21.2-12.44.06-19.04.06,2.91-10.74,6.35-20.53,11.78-29.54.87-1.45,1.29-3.51,3.84-3.18,2.91.38,5.33-.58,6.36-3.55,1.14-3.3-.19-5.79-2.97-7.65-6.37-.31-7.77.9-8.19,7.07,1.11,1.62.46,2.89-.52,4.39-1.85,2.84-3.4,5.88-5.08,8.84.12,1.74-.95,2.99-1.8,4.42-.96-1.84.29-3.21.74-4.71,1.35-5.4,2.73-10.78,4.98-15.89.24-4.33,3.11-5.68,6.84-6.07,2.54-2.71,3.57-5.68.98-8.85-1.9-2.32-4.46-2.9-7.14-1.32-3.55,2.1-3.77,5.16-2.02,8.55.42.81.56,1.52.23,2.33-3.07,7.35-5.32,14.99-8.04,22.54-.48-9.21-.47-18.33-.48-27.45,0-2.78-.2-5.24,2.62-7.42,2.66-2.05,2.47-5.43-.13-7.88-2.52-2.37-5.47-2.45-8.02,0-2.57,2.48-2.76,5.81-.12,7.89,2.77,2.18,2.64,4.62,2.63,7.41-.03,6.49-.01,12.97-.01,19.46v7.91c-2.95-6.62-4.79-13.29-7.47-19.68-.91-2.15-1.45-3.99-.24-6.49,1.3-2.69.43-5.57-2.58-7.2-2.74-1.48-5.25-.98-7.15,1.34-2.59,3.16-1.56,6.14.98,8.85,3.73.39,6.6,1.76,6.84,6.07,2.22,5.09,3.61,10.4,4.29,15.98-1.72-4.5-6.89-7.33-5.97-13.02-.41-6.18-1.81-7.39-8.19-7.08-2.77,1.86-4.1,4.35-2.96,7.66,1.03,2.99,3.44,3.93,6.35,3.54,1.7-.23,2.37.72,3.1,1.9,5.82,9.49,9.69,19.75,12.43,30.83-6.64,0-12.79.19-18.92-.08-3.1-.14-4.22,1.01-5.07,3.86-3.35,11.27-6.91,22.48-10.58,33.66-.9,2.74-.6,4.93.71,7.46,6.36,12.35,12.53,24.8,18.77,37.21,1.32,1.44,2.13,3.15,2.82,4.94.07.08.14.17.21.25ZM557.62,484.29c-.6-1.04-1.9-1.84-1.29-3.41,1.68.75,1.7,2.02,1.29,3.41ZM535.79,523.04c.43-5.22,2.63-9.89,3.97-14.83.51-1.88,2.01-1.39,3.24-1.39,13.3-.02,26.61-.01,39.91-.02,1.48,0,2.83-.19,3.52,1.8,3.9,11.34,6.2,22.65,1.01,34.27-3.96,8.88-6.59,18.41-13.19,26.4-3.14-3.79-6.31-7.4-9.22-11.19-1.51-1.97-2.41-2.15-4.01-.06-2.9,3.81-6.08,7.42-9.67,11.75-7.97-15.12-16.99-29.09-15.55-46.73ZM532.9,552.09c1.09-.79,1.62.93,2.07,1.89,5.38,6.73,10.75,13.47,16.37,20.5,3.36-4.11,6.59-7.87,9.61-11.8,1.53-1.99,2.52-2.04,4.07-.02,3.01,3.93,6.23,7.7,9.59,11.82,5.62-7.03,11-13.77,16.38-20.51.42-1,1.04-2.65,2.08-1.88,1.04.77-.12,2.14-1.01,3-9.51,18.85-19.02,37.69-29.08,57.62-10.06-19.93-19.57-38.78-29.08-57.62-.89-.86-2.05-2.25-1.01-3.01Z"/>
        <path d="M785.67,352.87c.3-.15.64-.24.89-.44,34.04-27.24,68.07-54.49,102.09-81.76,1.01-.81,2.07-1.53,2.38-3.04,1.77-8.57,3.64-17.13,5.63-26.4-8.8,1.83-16.6,3.47-24.41,5.08-2.18.45-3.91,1.39-5.36,3.21-26.91,33.67-53.87,67.28-80.81,100.92-.55.68-1.62,1.39-.4,2.42Z"/>
        <path d="M234.47,265.5c.51,2.69,1.88,4.37,3.91,6,23.02,18.38,45.99,36.82,68.98,55.24,10.99,8.8,21.99,17.6,32.98,26.39.21-.27.41-.53.62-.8-.17-.44-.26-.95-.54-1.3-27.15-33.91-54.32-67.81-81.51-101.69-.71-.88-1.56-2.02-2.53-2.24-8.79-2.03-17.62-3.89-27.03-5.93,1.86,8.74,3.64,16.51,5.12,24.34Z"/>
        <path d="M140.4,413.85c1.74,2.68,3.88,4.19,6.94,5.07,26.15,7.5,52.25,15.14,78.37,22.73,16.52,4.8,33.05,9.57,50.73,14.7-1.47-1.13-1.91-1.56-2.42-1.85-38.95-21.42-77.91-42.84-116.86-64.24-1.3-.72-2.54-1.25-4.22-.91-8.43,1.71-16.9,3.23-25.87,4.92,4.6,6.72,9.1,13.07,13.33,19.58Z"/>
        <path d="M377.78,164.2c-.34,1.74-.23,3.14.63,4.7,21.42,38.92,42.8,77.86,64.28,116.97.74-1.91.19-3.45-.27-5.04-11.87-40.81-23.71-81.64-35.58-122.45-.37-1.26-.63-2.93-1.54-3.58-7.46-5.37-15.05-10.54-22.91-15.98-1.62,9.03-3.02,17.23-4.6,25.39Z"/>
        <path d="M856.29,454.43c41.11-11.93,82.22-23.87,123.31-35.86,1.37-.4,2.99-.41,3.97-1.84,5.04-7.38,10.11-14.75,15.46-22.55-9.71-1.69-19.03-5.19-27.88-4.28-7.17.74-13.78,6.81-20.64,10.51-.44.24-.89.45-1.32.69-32.37,17.79-64.75,35.58-97.29,53.47,1.72,1.13,3.06.24,4.39-.15Z"/>
        <path d="M684.14,284.22c21.2-38.5,42.39-77.01,63.57-115.53.54-.99,1.11-1.94.85-3.26-1.69-8.67-3.28-17.36-4.99-26.56-6.99,4.82-13.31,9.39-19.86,13.6-2.59,1.67-3.9,3.74-4.72,6.57-8.78,30.44-17.64,60.85-26.48,91.27-3.32,11.42-6.63,22.85-10.28,35.43,1.45-1.14,1.78-1.28,1.92-1.53Z"/>
        <path d="M577.6,134.36c.32-2.94,1.64-6.2.05-8.82-4.53-7.47-9.49-14.68-14.65-22.55-4.48,6.86-8.55,13.26-12.81,19.54-1.76,2.59-2.59,5.14-2.22,8.34,2.58,22.48,5.06,44.96,7.5,67.46,2.26,20.84,4.43,41.68,6.64,62.52.59,0,1.18.01,1.77.02.04-1.16.01-2.33.14-3.49,4.52-41.01,9.07-82.01,13.57-123.02Z"/>
        <path d="M1012.34,560.14c-1.4-.91-2.92-.44-4.38-.29-17.19,1.85-34.38,3.73-51.58,5.59-26.45,2.88-52.9,5.75-79.34,8.63.35.55.69,1.11,1.04,1.66,42.15,4.61,84.29,9.23,126.44,13.81,2.6.28,5.38,1.41,7.8-.11,7.41-4.64,14.7-9.48,22.55-14.58-7.9-5.16-15.22-9.95-22.54-14.72Z"/>
        <path d="M246.59,575.44l2.35-1.28c-11.4-1.27-22.8-2.55-34.21-3.8-32.24-3.53-64.47-7.04-96.71-10.56-1.49-.16-3-.55-4.37.35-7.33,4.75-14.64,9.52-22.57,14.68,6.81,4.41,13.21,8.23,19.23,12.56,3.27,2.35,6.46,2.73,10.24,2.31,41.81-4.7,83.63-9.3,125.45-13.93.14-.21.35-.29.59-.32Z"/>
        <path d="M576.46,460.9c-.95.89-1.6,2.04-1.58,3.8-.05.13-.09.27-.13.4.07.12.13.23.2.35.45-2.14.87-3.61,1.52-4.55Z"/>
        <path d="M583.99,459.89c-1.01-.65-2.01-1.3-3.02-1.95-.83.61-1.8,1.11-2.71,1.66,1.25-.34,3.02-.16,5.73.29Z"/>
        <path d="M551.07,464.45c-.02-1.66-.65-2.75-1.55-3.58.66.94,1.09,2.42,1.54,4.57.07-.12.14-.25.21-.37-.07-.21-.13-.41-.2-.62Z"/>
        <path d="M547.77,459.61c-.93-.55-1.91-1.04-2.75-1.67-1.01.65-2.02,1.3-3.02,1.95,2.73-.47,4.52-.64,5.77-.28Z"/>
        <path d="M545.99,587.01c-.08-.35-.15-.7-.18-1.08-.33-.11-.64-.08-.94.09.44.28.79.62,1.12.99Z"/>
        <path d="M549.04,591.97c-.13-.37-.27-.74-.41-1.1-1.04-1.16-1.62-2.68-2.64-3.85.47,1.91,1.74,3.39,2.97,4.88,0,0,0,0,0-.01.03.03.05.06.07.09Z"/>
        <path d="M562.12,260.85c-.32,1.72-.7,3.45,1.55,4.67.42-1.75.7-3.17.21-4.65h0c-.6.75-1.19.76-1.77-.02Z"/>
        <path d="M399.76,544.12c2.29,1.24,4.82.81,7.26,1.04-.02-.37-.03-.73-.05-1.1-1.34-.3-2.68-.6-4.02-.9h0c-.47,2.28-2.01,1.03-3.19.97Z"/>
        <path d="M530.18,417.91c.41,1.82.83,3.65,1.42,6.25.49-3.04.84-5.23-.46-7.29.44,1.04-.06,1.22-.95,1.04Z"/>
        <path d="M727.21,542.09s0,0,0,0c-1.22.14-2.77,1.34-3.22-1-1.34.32-2.67.64-4.01.96-.01.34-.03.68-.04,1.02,2.46-.07,4.96.17,7.27-.98Z"/>
        <path d="M426.95,484.13c.13.93-.08,1.47-1.16,1.02,1.3,1.28,2.71,2.3,4.95,2.38-1.01-1.87-2.29-2.76-3.78-3.4Z"/>
        <path d="M877.05,574.08c-1.2-.02-2.51-.65-3.6.6,1.38,1.43,2.97,1.44,4.64,1.06-.76-.3-1.66-.5-1.04-1.66Z"/>
        <path d="M403.88,606.81c1.07-.37,1.31.12,1.1,1.06,1.68-.31,3.36-.62,5.04-.92h0c0-.35.01-.7.02-1.04-2.08.08-4.24-.36-6.15.9Z"/>
        <path d="M721.09,604.8c-1.79-1.17-3.64-.97-5.6-.05,1.53.35,3.06.7,4.59,1.05-.24-.92-.02-1.37,1.01-1Z"/>
        <path d="M407.25,544.78c-.07.25-.15.38-.23.38,1.36,1.18,2.82,1.09,4.81.21-1.89-.51-3.37-.91-4.86-1.31.26.23.35.47.28.72Z"/>
        <path d="M696.54,484.14c.03-.27.09-.41.17-.41-1.4.37-2.79.75-2.73,3.02,1.38-.55,2.5-.75,2.99-2-.31-.16-.46-.37-.43-.62Z"/>
        <path d="M580.14,586.84c.29-.3.61-.58.97-.82-.3-.17-.61-.2-.94-.09.04.33.02.63-.04.91Z"/>
        <path d="M580.14,586.84c-.77.82-1.3,1.82-1.81,2.84-.05.1-.09.19-.14.29.12,0,.25,0,.37,0,.49-1.05,1.35-1.96,1.57-3.13Z"/>
        <path d="M719.94,543.07c-.33-.24-.43-.47-.31-.69.12-.22.24-.33.35-.33-1.56.4-3.13.81-5.36,1.39,2.38.78,3.88.42,5.31-.37Z"/>
        <path d="M246.59,575.44l-.59.32c1.38-.11,2.76-.18,4.13-.37.21-.03.34-.65.51-.99-.56-.08-1.13-.16-1.69-.24.06,1.97-1.4,1.16-2.35,1.28Z"/>
        <path d="M592.88,417.99c-.82,1.11-1.38,2.24-.24,3.62.63-1.25,1.47-2.28,1.22-3.68-.31.36-.64.38-.98.05Z"/>
        <path d="M410.03,605.91c.25.24.33.47.24.7-.09.23-.17.34-.26.34h0c1.07.1,2.47-.4,2.19-1.26-.42-1.34-1.48-.48-2.18.22Z"/>
        <path d="M560.71,615.74c-1.03-1.89-1.98-3.83-2.9-5.78-.08,0-.16,0-.24.01.02.05.05.09.07.14.9,1.98,1.98,3.87,2.91,5.83.09,0,.19-.02.28-.02-.04-.06-.08-.13-.13-.19Z"/>
        <path d="M554.79,603.96c-.07,0-.15,0-.22.01,0,.02.02.03.03.05.88,1.94,1.91,3.8,2.84,5.7.09,0,.18.02.27.06-1.03-1.91-1.99-3.87-2.92-5.83Z"/>
        <path d="M557.44,609.73c-.21,0-.42.09-.62.28.25-.01.49-.02.74-.03-.04-.08-.08-.17-.12-.25Z"/>
        <path d="M557.72,609.8c.03.06.06.11.08.17.06,0,.12,0,.19,0-.09-.08-.18-.13-.27-.17,0,0,0,0,0,.01Z"/>
        <path d="M552.05,598s-.03-.01-.05-.02c.57,2.02,1.47,3.89,2.45,5.74.08,0,.16,0,.25.04-.87-1.58-1.65-3.2-2.04-4.98-.2-.27-.4-.54-.6-.8,0,0,0,.01,0,.02Z"/>
        <path d="M554.45,603.72c-.23,0-.46.09-.68.29.27-.02.54-.03.8-.05-.04-.08-.09-.17-.13-.25Z"/>
        <path d="M554.75,603.87s.03.06.04.09h.23c-.11-.1-.23-.16-.34-.2.02.04.04.07.06.11Z"/>
        <path d="M549.05,592s-.03,0-.05-.01c.73,2.1,1.31,4.27,2.95,5.91,0,0,0-.01,0-.02.03.03.05.07.08.1-.09-.31-.18-.61-.28-.92-1.18-1.27-1.84-2.78-2.2-4.44-.17-.22-.35-.44-.53-.65,0,.01,0,.02.01.03Z"/>
        <path d="M548.98,591.91s0-.01-.01-.02c0,.03-.01.05-.02.08.02,0,.04.01.06.01,0-.03-.02-.05-.03-.08Z"/>
        <path d="M551.98,597.92s-.02-.02-.02-.03c-.01.02-.02.04-.03.06.03,0,.05.02.08.02,0-.02-.01-.04-.02-.06Z"/>
        <path d="M562.43,618.07c-.94-.21-1.08-1.23-1.49-1.98-.09.06-.17.11-.26.13.04.08.08.16.11.23.83,1.13.46,3.94,3.25,2.31-.96.19-1.36-.17-1.61-.69Z"/>
        <path d="M560.68,616.22c-.04-.09-.09-.18-.13-.27-.24.02-.48.04-.72.06.3.24.58.3.85.21Z"/>
        <path d="M560.94,616.09c.07-.05.15-.11.22-.19-.11,0-.22.02-.33.03.04.05.08.1.11.16Z"/>
        <path d="M574.16,598.15c.05.06.1.12.14.18.05-.1.11-.21.17-.31.6-1.35,1.32-2.66,1.92-4.01,0-.01.01-.03.02-.04-.07,0-.13,0-.2,0-.67,1.4-1.35,2.8-2.05,4.18Z"/>
        <path d="M572.3,601.82c-.66,1.33-1.29,2.68-2,3.99-.02.05-.05.1-.07.15h.18c.78-1.47,1.48-2.98,2.2-4.47-.03-.03-.05-.07-.08-.1-.08.15-.15.3-.23.45Z"/>
        <path d="M566.17,614.12c.05.07.1.13.16.2.02-.04.05-.09.07-.13.62-1.4,1.35-2.75,1.98-4.14.01-.03.03-.06.05-.09-.07,0-.13,0-.2,0-.68,1.4-1.35,2.79-2.06,4.17Z"/>
        <path d="M568.34,609.71c.07-.02.14-.02.2-.01.58-1.18,1.24-2.32,1.76-3.53-.05-.02-.1-.04-.15-.07-.59,1.21-1.18,2.43-1.81,3.61Z"/>
        <path d="M570.4,605.99c-.03.06-.06.12-.08.18.22.08.45.02.67-.22-.19,0-.38,0-.57,0,0,.01-.01.02-.02.04Z"/>
        <path d="M570.23,605.95h-.27c.06.06.13.11.19.15.02-.05.05-.1.07-.15Z"/>
        <path d="M568.42,609.95c.19,0,.37,0,.56,0-.14-.15-.29-.23-.43-.25-.04.08-.08.16-.12.25Z"/>
        <path d="M568.3,609.79s.03-.06.04-.08c-.13.03-.25.1-.38.23h0c.09,0,.18,0,.26,0,.02-.05.05-.1.07-.15Z"/>
        <path d="M578.14,590.09c-.59,1.23-1.18,2.47-1.82,3.67.07-.03.14-.05.21-.05.54-1.19,1.49-2.16,1.92-3.41-.1-.03-.2-.1-.3-.21Z"/>
        <path d="M578.52,590.07c-.02.08-.05.15-.08.23.21.06.42-.03.63-.31-.17,0-.33,0-.5,0-.01.03-.03.06-.05.09Z"/>
        <path d="M578.19,589.97c-.06,0-.11,0-.17,0,.04.05.08.08.11.12.02-.04.04-.08.06-.12Z"/>
        <path d="M576.41,593.97c.2,0,.4,0,.6,0-.16-.17-.32-.25-.48-.26-.04.09-.08.17-.11.26Z"/>
        <path d="M576.31,593.77s0,0,0-.01c-.1.04-.2.11-.3.21.06,0,.13,0,.19,0,.03-.07.07-.13.1-.2Z"/>
        <path d="M565.85,614.75c-.48.94-1.07,1.81-1.86,2.54-.03.28-.05.56-.04.86.89-.98,1.49-2.15,2.1-3.3-.08-.02-.14-.05-.2-.1Z"/>
        <path d="M566.04,614.84c.18.05.42.07.72.03-.15-.19-.29-.37-.44-.56-.09.17-.19.35-.28.53Z"/>
        <path d="M565.85,614.75c.07-.13.14-.25.2-.39.04-.08.08-.16.12-.24-.1-.13-.2-.26-.3-.39-.25.54-.23.85-.01,1.02Z"/>
        <path d="M573.83,598.81c-.36.75-.73,1.49-1.12,2.23.05,0,.09,0,.13,0,.39-.72.77-1.43,1.15-2.15-.07-.02-.12-.05-.16-.09Z"/>
        <path d="M574.3,598.33c-.1.19-.2.38-.3.57.19.05.47.04.77,0h0c-.15-.19-.31-.38-.46-.57Z"/>
        <path d="M573.83,598.81c.07-.14.14-.27.2-.41.04-.08.08-.17.12-.25-.06-.07-.12-.15-.18-.22-.28.49-.29.75-.14.88Z"/>
        <path d="M572.84,601.05c-.06.11-.12.22-.18.34-.02.03-.03.06-.04.09.13.17.26.34.39.52.42-.68.24-.9-.17-.94Z"/>
        <path d="M572.71,601.04c-.13,0-.27,0-.42.01.08.11.16.21.24.32.06-.11.12-.22.17-.33Z"/>
        <path d="M574.4,466.14c-1.47,4.56-2.62,9.23-4.74,13.55-.01.11-.04.22-.05.33.01,0,.02,0,.03,0,0-.01,0-.02,0-.03,1.26-2.88,2.29-5.88,4.18-8.44,1.09-1.47,1.23-3.09,1.11-4.77-.31-.15-.47-.38-.54-.65Z"/>
        <path d="M574.4,466.14c.11-.35.23-.7.34-1.05-.21-.36-.41-.73-.62-1.09.34.57.09,1.48.27,2.14Z"/>
        <path d="M574.85,465.85c.04.32.06.63.09.95.21.1.48.16.86.17l-.86-1.52c-.03.14-.06.26-.09.4Z"/>
        <path d="M551.07,466.79c-.09,1.61-.03,3.2,1.03,4.65,1.04,1.42,1.86,2.97,2.51,4.43-.89-3.2-1.93-6.48-3-9.77-.07.29-.22.54-.53.7Z"/>
        <path d="M551.14,465.8c-.03-.13-.05-.24-.08-.36-.29.51-.58,1.03-.87,1.54.39,0,.67-.07.88-.18.02-.33.04-.66.07-.99Z"/>
        <path d="M551.61,466.09c.16-.65-.07-1.52.26-2.08-.2.35-.4.7-.59,1.05.11.34.22.69.34,1.03Z"/>
        <path d="M569.55,480.43c-.16.8-.42,1.59-.52,2.41.13-.81.45-1.59.56-2.4-.02,0-.03,0-.05,0Z"/>
        <path d="M569.59,480.44c.17.03.37-.04.61-.24-.19-.05-.37-.1-.56-.16,0,.14-.03.27-.05.4Z"/>
        <path d="M569.55,480.43c.03-.13.04-.27.06-.4-.15-.04-.31-.09-.46-.13.1.3.23.47.4.53Z"/>
        <path d="M591,553.97c.36.37.72.75,1.07,1.12.41-1.11-.11-1.33-1.07-1.12Z"/>
        <path d="M533.91,555.09c.36-.37.71-.74,1.07-1.11-.96-.2-1.47.02-1.07,1.11Z"/>
      </g>
    </g>
  </g>
</svg>